<svg width="24" height="25" viewBox="0 0 24 25" fill="none" xmlns="http://www.w3.org/2000/svg">
<path d="M12 7.375C12.373 7.375 12.7306 7.22684 12.9944 6.96312C13.2581 6.6994 13.4062 6.34171 13.4062 5.96875C13.4062 5.59579 13.2581 5.2381 12.9944 4.97438C12.7306 4.71066 12.373 4.5625 12 4.5625C11.627 4.5625 11.2694 4.71066 11.0056 4.97438C10.7419 5.2381 10.5938 5.59579 10.5938 5.96875C10.5938 6.34171 10.7419 6.6994 11.0056 6.96312C11.2694 7.22684 11.627 7.375 12 7.375Z" fill="#FFD4D3"/>
<path d="M13.38 0.726246C12.9899 0.409249 12.5026 0.236206 12 0.236206C11.4974 0.236206 11.0101 0.409249 10.62 0.726246L1.24125 8.34999C0.101246 9.27812 0.757496 11.125 2.2275 11.125H2.625V19C1.51125 19.5681 0.749996 20.725 0.749996 22.0619V23.3125C0.749996 23.5611 0.848769 23.7996 1.02458 23.9754C1.2004 24.1512 1.43886 24.25 1.6875 24.25H22.3125C22.5611 24.25 22.7996 24.1512 22.9754 23.9754C23.1512 23.7996 23.25 23.5611 23.25 23.3125V22.0619C23.25 20.7269 22.4887 19.5681 21.375 19V11.125H21.7725C23.2425 11.125 23.8987 9.27812 22.7569 8.34999L13.3819 0.726246H13.38ZM11.805 2.18125C11.8607 2.13619 11.9302 2.11161 12.0019 2.11161C12.0735 2.11161 12.143 2.13619 12.1987 2.18125L20.8894 9.25H3.10875L11.805 2.18125ZM19.5 18.625H17.625V11.125H19.5V18.625ZM15.75 18.625H12.9375V11.125H15.75V18.625ZM11.0625 18.625H8.25V11.125H11.0625V18.625ZM19.8131 20.5C20.6756 20.5 21.375 21.1994 21.375 22.0619V22.375H2.625V22.0619C2.625 21.1994 3.32437 20.5 4.18687 20.5H19.8131ZM6.375 18.625H4.5V11.125H6.375V18.625Z" fill="#EEB581"/>
</svg>
