<svg width="26" height="26" viewBox="0 0 26 26" fill="none" xmlns="http://www.w3.org/2000/svg">
<path d="M10.5 24.25H15.5M21.75 24.25V4.25C21.75 3.58696 21.4866 2.95107 21.0178 2.48223C20.5489 2.01339 19.913 1.75 19.25 1.75H6.75C6.08696 1.75 5.45107 2.01339 4.98223 2.48223C4.51339 2.95107 4.25 3.58696 4.25 4.25V24.25H21.75ZM21.75 24.25H24.25H21.75ZM21.75 24.25H15.5H21.75ZM4.25 24.25H1.75H4.25ZM4.25 24.25H10.5H4.25ZM9.25 6.75H10.5H9.25ZM9.25 11.75H10.5H9.25ZM15.5 6.75H16.75H15.5ZM15.5 11.75H16.75H15.5ZM10.5 24.25V18C10.5 17.6685 10.6317 17.3505 10.8661 17.1161C11.1005 16.8817 11.4185 16.75 11.75 16.75H14.25C14.5815 16.75 14.8995 16.8817 15.1339 17.1161C15.3683 17.3505 15.5 17.6685 15.5 18V24.25H10.5Z" stroke="#7F7FD5" stroke-width="2" stroke-linecap="round" stroke-linejoin="round"/>
</svg>
