<svg width="24" height="27" viewBox="0 0 24 27" fill="none" xmlns="http://www.w3.org/2000/svg">
<path fill-rule="evenodd" clip-rule="evenodd" d="M17.4418 1.06707L17.4431 2.04201C21.0257 2.32279 23.3923 4.76404 23.3961 8.50781L23.4103 19.4661C23.4154 23.5479 20.8511 26.0593 16.7407 26.0658L6.70039 26.0788C2.6157 26.084 0.01927 23.5128 0.0141336 19.4193L8.64847e-06 8.58971C-0.00512771 4.82124 2.27799 2.38649 5.8606 2.05761L5.85931 1.08267C5.85803 0.510704 6.28178 0.0804307 6.84678 0.0804307C7.41178 0.0791308 7.83553 0.508105 7.83681 1.08007L7.8381 1.99001L15.4656 1.97961L15.4643 1.06967C15.463 0.497705 15.8868 0.0687315 16.4518 0.0674315C17.0039 0.0661316 17.4405 0.495105 17.4418 1.06707ZM1.97882 8.99139L21.4199 8.96539V8.51042C21.3647 5.71559 19.9625 4.24928 17.4457 4.03089L17.447 5.03183C17.447 5.5908 17.0117 6.03407 16.4595 6.03407C15.8945 6.03537 15.4695 5.5934 15.4695 5.03443L15.4682 3.98149L7.84069 3.99189L7.84197 5.04353C7.84197 5.60379 7.41951 6.04577 6.85451 6.04577C6.28951 6.04707 5.86447 5.60639 5.86447 5.04613L5.86319 4.04519C3.35921 4.29607 1.97368 5.76758 1.97753 8.58711L1.97882 8.99139ZM15.919 14.8995V14.9138C15.9318 15.5118 16.4198 15.9655 17.0117 15.9525C17.5896 15.9382 18.0506 15.4429 18.0377 14.8449C18.0108 14.273 17.5472 13.8063 16.9706 13.8076C16.38 13.8206 15.9177 14.3016 15.919 14.8995ZM16.9795 20.7362C16.3888 20.7232 15.9124 20.2305 15.9111 19.6325C15.8983 19.0346 16.3721 18.5393 16.9628 18.525H16.9756C17.5792 18.525 18.0684 19.0177 18.0684 19.6286C18.0697 20.2396 17.5817 20.7349 16.9795 20.7362ZM10.6284 14.9203C10.6541 15.5183 11.1433 15.985 11.734 15.959C12.3119 15.9317 12.7728 15.4377 12.7472 14.8397C12.733 14.2548 12.2579 13.7998 11.6801 13.8011C11.0894 13.8271 10.6271 14.3224 10.6284 14.9203ZM11.7393 20.6777C11.1486 20.7037 10.6606 20.237 10.6336 19.639C10.6336 19.0411 11.0946 18.5471 11.6853 18.5198C12.2632 18.5185 12.7396 18.9735 12.7524 19.5571C12.7794 20.1564 12.3171 20.6504 11.7393 20.6777ZM5.33801 14.9658C5.3637 15.5638 5.85294 16.0318 6.44362 16.0045C7.02146 15.9785 7.48245 15.4832 7.45548 14.8852C7.44264 14.3003 6.96753 13.8453 6.3884 13.8466C5.79772 13.8726 5.33673 14.3679 5.33801 14.9658ZM6.44871 20.6842C5.85802 20.7115 5.37007 20.2435 5.3431 19.6455C5.34182 19.0476 5.80409 18.5523 6.39477 18.5263C6.97261 18.525 7.44901 18.98 7.46185 19.5649C7.48882 20.1629 7.02783 20.6582 6.44871 20.6842Z" fill="#E41613"/>
</svg>
