<svg width="38" height="34" viewBox="0 0 38 34" fill="none" xmlns="http://www.w3.org/2000/svg">
<path opacity="0.7" fill-rule="evenodd" clip-rule="evenodd" d="M29.3013 6.44185C29.375 6.57068 29.504 6.6627 29.6698 6.6627C34.0918 6.6627 37.703 10.2699 37.703 14.687V25.6191C37.703 30.0362 34.0918 33.6434 29.6698 33.6434H8.88671C4.44634 33.6434 0.853516 30.0362 0.853516 25.6191V14.687C0.853516 10.2699 4.44634 6.6627 8.88671 6.6627C9.03411 6.6627 9.18151 6.58908 9.23678 6.44185L9.34733 6.221C9.41087 6.08726 9.47609 5.94989 9.54229 5.81044C10.0136 4.81767 10.5351 3.71936 10.8582 3.07386C11.7057 1.41747 13.1428 0.497256 14.93 0.478851H23.6081C25.3953 0.497256 26.8509 1.41747 27.6984 3.07386C27.9886 3.6536 28.4307 4.58744 28.8568 5.4875C28.9448 5.67323 29.032 5.85751 29.1171 6.03695L29.3013 6.44185ZM27.9562 13.5091C27.9562 14.4293 28.6932 15.1655 29.6145 15.1655C30.5357 15.1655 31.2911 14.4293 31.2911 13.5091C31.2911 12.5889 30.5357 11.8343 29.6145 11.8343C28.6932 11.8343 27.9562 12.5889 27.9562 13.5091ZM16.0906 16.3617C16.9566 15.4967 18.0805 15.0366 19.2781 15.0366C20.4757 15.0366 21.5996 15.4967 22.4471 16.3433C23.2947 17.1899 23.7553 18.3126 23.7553 19.5089C23.7369 21.975 21.747 23.9811 19.2781 23.9811C18.0805 23.9811 16.9566 23.521 16.109 22.6744C15.2615 21.8278 14.8009 20.7051 14.8009 19.5089V19.4905C14.7824 18.331 15.243 17.2083 16.0906 16.3617ZM24.3817 24.6253C23.0735 25.932 21.2679 26.7418 19.278 26.7418C17.3434 26.7418 15.5378 25.9872 14.1559 24.6253C12.7925 23.245 12.0371 21.4414 12.0371 19.5089C12.0187 17.5948 12.7741 15.7912 14.1375 14.4109C15.5194 13.0306 17.3434 12.276 19.278 12.276C21.2126 12.276 23.0367 13.0306 24.4001 14.3925C25.7635 15.7728 26.519 17.5948 26.519 19.5089C26.5005 21.515 25.6898 23.3186 24.3817 24.6253Z" fill="#030229"/>
</svg>
