<svg width="31" height="31" viewBox="0 0 31 31" fill="none" xmlns="http://www.w3.org/2000/svg">
<path fill-rule="evenodd" clip-rule="evenodd" d="M20.0992 6.36854C20.5764 6.37509 21.0548 6.38165 21.5348 6.38656C26.6924 6.38656 30.4529 10.0636 30.4529 15.1414V21.6637C30.4529 26.7415 26.6924 30.4185 21.5348 30.4185C19.4688 30.4622 17.4028 30.4768 15.3219 30.4768C13.241 30.4768 11.1453 30.4622 9.07929 30.4185C3.92169 30.4185 0.161255 26.7415 0.161255 21.6637V15.1414C0.161255 10.0636 3.92169 6.38656 9.09415 6.38656C11.0413 6.35737 13.033 6.32819 15.0544 6.32819V6.08014C15.0544 5.07334 14.2072 4.25622 13.1965 4.25622H11.725C10.0454 4.25622 8.67798 2.91382 8.67798 1.27959C8.67798 0.681347 9.18333 0.185242 9.79273 0.185242C10.417 0.185242 10.9075 0.681347 10.9075 1.27959C10.9075 1.71733 11.2791 2.06752 11.725 2.06752H13.1965C15.4408 2.08211 17.269 3.87685 17.2839 6.06555V6.34278C18.2209 6.34278 19.1579 6.35563 20.0992 6.36854ZM13.568 19.4896H12.0074V21.0362C12.0074 21.6345 11.502 22.1306 10.8926 22.1306C10.2684 22.1306 9.77787 21.6345 9.77787 21.0362V19.4896H8.20235C7.59295 19.4896 7.0876 19.0081 7.0876 18.3952C7.0876 17.797 7.59295 17.3009 8.20235 17.3009H9.77787V15.7688C9.77787 15.1705 10.2684 14.6744 10.8926 14.6744C11.502 14.6744 12.0074 15.1705 12.0074 15.7688V17.3009H13.568C14.1774 17.3009 14.6828 17.797 14.6828 18.3952C14.6828 19.0081 14.1774 19.4896 13.568 19.4896ZM19.885 17.0236H20.0336C20.643 17.0236 21.1484 16.5421 21.1484 15.9293C21.1484 15.331 20.643 14.8349 20.0336 14.8349H19.885C19.2607 14.8349 18.7702 15.331 18.7702 15.9293C18.7702 16.5421 19.2607 17.0236 19.885 17.0236ZM22.4266 22.043H22.5753C23.1847 22.043 23.69 21.5615 23.69 20.9487C23.69 20.3505 23.1847 19.8544 22.5753 19.8544H22.4266C21.8009 19.8544 21.3119 20.3505 21.3119 20.9487C21.3119 21.5615 21.8009 22.043 22.4266 22.043Z" fill="#FFC327"/>
</svg>
