<svg width="80" height="14" viewBox="0 0 80 14" fill="none" xmlns="http://www.w3.org/2000/svg">
<path d="M11.5838 8.631C11.3976 8.80825 11.3121 9.06461 11.3545 9.31601L11.9935 12.7905C12.0474 13.085 11.9209 13.383 11.67 13.5532C11.4242 13.7298 11.0972 13.7509 10.8291 13.6097L7.64569 11.9784C7.535 11.9205 7.41209 11.8894 7.2863 11.8859H7.09152C7.02395 11.8958 6.95783 11.9169 6.89745 11.9494L3.71333 13.5885C3.55592 13.6662 3.37766 13.6937 3.203 13.6662C2.7775 13.5871 2.49358 13.1888 2.5633 12.7686L3.203 9.29412C3.24541 9.04059 3.15988 8.78283 2.97372 8.60275L0.37826 6.13105C0.161194 5.92414 0.0857233 5.61341 0.184913 5.33305C0.281227 5.05339 0.527045 4.8493 0.823894 4.8034L4.39615 4.29423C4.66785 4.26669 4.90648 4.10426 5.02867 3.86415L6.60276 0.693318C6.64013 0.622698 6.68829 0.557727 6.74651 0.502644L6.8112 0.45321C6.84498 0.416487 6.8838 0.386121 6.92692 0.361404L7.00527 0.333156L7.12746 0.283722H7.43006C7.70031 0.311264 7.93822 0.470159 8.06257 0.707442L9.65751 3.86415C9.77251 4.09508 9.99605 4.25539 10.2541 4.29423L13.8263 4.8034C14.1282 4.84577 14.3805 5.05057 14.4804 5.33305C14.5746 5.61623 14.4934 5.92696 14.272 6.13105L11.5838 8.631Z" fill="#FFD66B"/>
<path d="M27.8779 8.63097C27.6917 8.80822 27.6062 9.06457 27.6486 9.31598L28.2876 12.7905C28.3415 13.085 28.215 13.383 27.9641 13.5532C27.7183 13.7297 27.3913 13.7509 27.1232 13.6097L23.9398 11.9784C23.8291 11.9204 23.7062 11.8894 23.5804 11.8858H23.3856C23.3181 11.8957 23.2519 11.9169 23.1916 11.9494L20.0074 13.5885C19.85 13.6662 19.6718 13.6937 19.4971 13.6662C19.0716 13.5871 18.7877 13.1888 18.8574 12.7686L19.4971 9.29409C19.5395 9.04056 19.454 8.7828 19.2678 8.60272L16.6724 6.13102C16.4553 5.92411 16.3798 5.61338 16.479 5.33302C16.5753 5.05336 16.8211 4.84927 17.118 4.80337L20.6903 4.2942C20.9619 4.26666 21.2006 4.10423 21.3228 3.86412L22.8969 0.693287C22.9342 0.622667 22.9824 0.557697 23.0406 0.502613L23.1053 0.453179C23.1391 0.416457 23.1779 0.38609 23.221 0.361373L23.2994 0.333125L23.4216 0.283691H23.7242C23.9944 0.311233 24.2323 0.470128 24.3567 0.707411L25.9516 3.86412C26.0666 4.09505 26.2901 4.25536 26.5482 4.2942L30.1204 4.80337C30.4223 4.84574 30.6746 5.05054 30.7745 5.33302C30.8687 5.6162 30.7875 5.92693 30.5661 6.13102L27.8779 8.63097Z" fill="#FFD66B"/>
<path d="M44.172 8.63097C43.9859 8.80822 43.9003 9.06457 43.9427 9.31598L44.5817 12.7905C44.6356 13.085 44.5091 13.383 44.2583 13.5532C44.0125 13.7297 43.6854 13.7509 43.4173 13.6097L40.2339 11.9784C40.1232 11.9204 40.0003 11.8894 39.8745 11.8858H39.6797C39.6122 11.8957 39.5461 11.9169 39.4857 11.9494L36.3016 13.5885C36.1441 13.6662 35.9659 13.6937 35.7912 13.6662C35.3657 13.5871 35.0818 13.1888 35.1515 12.7686L35.7912 9.29409C35.8336 9.04056 35.7481 8.7828 35.5619 8.60272L32.9665 6.13102C32.7494 5.92411 32.6739 5.61338 32.7731 5.33302C32.8695 5.05336 33.1153 4.84927 33.4121 4.80337L36.9844 4.2942C37.2561 4.26666 37.4947 4.10423 37.6169 3.86412L39.191 0.693287C39.2284 0.622667 39.2765 0.557697 39.3347 0.502613L39.3994 0.453179C39.4332 0.416457 39.472 0.38609 39.5151 0.361373L39.5935 0.333125L39.7157 0.283691H40.0183C40.2885 0.311233 40.5264 0.470128 40.6508 0.707411L42.2457 3.86412C42.3607 4.09505 42.5843 4.25536 42.8423 4.2942L46.4146 4.80337C46.7164 4.84574 46.9687 5.05054 47.0686 5.33302C47.1628 5.6162 47.0816 5.92693 46.8602 6.13102L44.172 8.63097Z" fill="#FFD66B"/>
<path d="M60.4661 8.63097C60.28 8.80822 60.1945 9.06457 60.2369 9.31598L60.8758 12.7905C60.9298 13.085 60.8032 13.383 60.5524 13.5532C60.3066 13.7297 59.9795 13.7509 59.7114 13.6097L56.528 11.9784C56.4174 11.9204 56.2944 11.8894 56.1687 11.8858H55.9739C55.9063 11.8957 55.8402 11.9169 55.7798 11.9494L52.5957 13.5885C52.4383 13.6662 52.26 13.6937 52.0854 13.6662C51.6599 13.5871 51.3759 13.1888 51.4457 12.7686L52.0854 9.29409C52.1278 9.04056 52.0422 8.7828 51.8561 8.60272L49.2606 6.13102C49.0435 5.92411 48.9681 5.61338 49.0673 5.33302C49.1636 5.05336 49.4094 4.84927 49.7062 4.80337L53.2785 4.2942C53.5502 4.26666 53.7888 4.10423 53.911 3.86412L55.4851 0.693287C55.5225 0.622667 55.5706 0.557697 55.6289 0.502613L55.6936 0.453179C55.7273 0.416457 55.7662 0.38609 55.8093 0.361373L55.8876 0.333125L56.0098 0.283691H56.3124C56.5827 0.311233 56.8206 0.470128 56.9449 0.707411L58.5399 3.86412C58.6549 4.09505 58.8784 4.25536 59.1364 4.2942L62.7087 4.80337C63.0106 4.84574 63.2629 5.05054 63.3628 5.33302C63.4569 5.6162 63.3757 5.92693 63.1543 6.13102L60.4661 8.63097Z" fill="#FFD66B"/>
<path opacity="0.4" d="M76.7602 8.63097C76.5741 8.80822 76.4886 9.06457 76.531 9.31598L77.1699 12.7905C77.2239 13.085 77.0973 13.383 76.8465 13.5532C76.6007 13.7297 76.2736 13.7509 76.0055 13.6097L72.8221 11.9784C72.7114 11.9204 72.5885 11.8894 72.4628 11.8858H72.268C72.2004 11.8957 72.1343 11.9169 72.0739 11.9494L68.8898 13.5885C68.7324 13.6662 68.5541 13.6937 68.3795 13.6662C67.9539 13.5871 67.67 13.1888 67.7398 12.7686L68.3795 9.29409C68.4219 9.04056 68.3363 8.7828 68.1502 8.60272L65.5547 6.13102C65.3376 5.92411 65.2622 5.61338 65.3614 5.33302C65.4577 5.05336 65.7035 4.84927 66.0003 4.80337L69.5726 4.2942C69.8443 4.26666 70.0829 4.10423 70.2051 3.86412L71.7792 0.693287C71.8166 0.622667 71.8647 0.557697 71.923 0.502613L71.9877 0.453179C72.0214 0.416457 72.0602 0.38609 72.1034 0.361373L72.1817 0.333125L72.3039 0.283691H72.6065C72.8768 0.311233 73.1147 0.470128 73.239 0.707411L74.834 3.86412C74.949 4.09505 75.1725 4.25536 75.4305 4.2942L79.0028 4.80337C79.3047 4.84574 79.557 5.05054 79.6569 5.33302C79.751 5.6162 79.6698 5.92693 79.4484 6.13102L76.7602 8.63097Z" fill="#FFD66B"/>
</svg>
