<svg width="30" height="30" viewBox="0 0 30 30" fill="none" xmlns="http://www.w3.org/2000/svg">
<path d="M29.157 17.1555C28.9582 17.3048 28.7082 17.369 28.462 17.334C28.2159 17.299 27.9937 17.1677 27.8444 16.9689C27.2791 16.2094 26.5435 15.5931 25.6967 15.1697C24.8499 14.7464 23.9155 14.5277 22.9688 14.5313C22.7201 14.5313 22.4817 14.4325 22.3059 14.2567C22.13 14.0809 22.0313 13.8424 22.0313 13.5938C22.0313 13.3451 22.13 13.1067 22.3059 12.9309C22.4817 12.7551 22.7201 12.6563 22.9688 12.6563C23.5024 12.6561 24.0249 12.5042 24.4754 12.2182C24.9259 11.9323 25.2857 11.524 25.5129 11.0412C25.7401 10.5584 25.8252 10.021 25.7584 9.49157C25.6916 8.96218 25.4755 8.46273 25.1355 8.05152C24.7955 7.6403 24.3455 7.3343 23.8381 7.16924C23.3307 7.00417 22.7868 6.98686 22.2699 7.11931C21.753 7.25177 21.2844 7.52853 20.9189 7.91728C20.5534 8.30603 20.3061 8.79073 20.2057 9.3148C20.1593 9.55907 20.0178 9.77491 19.8122 9.91482C19.6067 10.0547 19.354 10.1073 19.1097 10.0609C18.8655 10.0145 18.6496 9.87293 18.5097 9.66739C18.3698 9.46185 18.3172 9.20915 18.3637 8.96488C18.5024 8.23533 18.8124 7.54917 19.2683 6.96294C19.7242 6.37672 20.3128 5.90719 20.9857 5.59304C21.6586 5.27889 22.3965 5.12912 23.1387 5.15605C23.8808 5.18299 24.6059 5.38586 25.2543 5.74796C25.9026 6.11007 26.4557 6.62103 26.8679 7.23877C27.28 7.8565 27.5395 8.56333 27.625 9.30101C27.7105 10.0387 27.6194 10.7861 27.3594 11.4817C27.0994 12.1774 26.6778 12.8012 26.1294 13.302C27.4044 13.8534 28.5126 14.7295 29.3434 15.8427C29.4174 15.9412 29.4712 16.0532 29.5019 16.1724C29.5326 16.2917 29.5394 16.4158 29.5221 16.5377C29.5048 16.6596 29.4637 16.7769 29.4011 16.8829C29.3384 16.9889 29.2555 17.0815 29.1571 17.1555H29.157ZM22.5886 24.9017C22.6438 25.0125 22.6764 25.1331 22.6847 25.2566C22.693 25.3801 22.6768 25.504 22.637 25.6212C22.5971 25.7384 22.5345 25.8465 22.4526 25.9394C22.3708 26.0322 22.2714 26.108 22.1601 26.1622C22.0489 26.2164 21.928 26.2481 21.8044 26.2554C21.6808 26.2626 21.5571 26.2454 21.4402 26.2045C21.3233 26.1637 21.2157 26.1002 21.1236 26.0175C21.0314 25.9349 20.9565 25.8349 20.9032 25.7232C20.3644 24.6162 19.5251 23.683 18.4813 23.0302C17.4375 22.3774 16.2312 22.0312 15 22.0312C13.7689 22.0312 12.5625 22.3774 11.5187 23.0302C10.4749 23.683 9.63565 24.6162 9.09681 25.7232C8.98788 25.9467 8.79461 26.1178 8.55954 26.1988C8.32446 26.2798 8.06683 26.2641 7.84332 26.1552C7.6198 26.0462 7.44872 25.853 7.3677 25.6179C7.28669 25.3828 7.30237 25.1252 7.41131 24.9017C8.27874 23.105 9.75743 21.6758 11.5826 20.87C10.6485 20.1555 9.9618 19.1661 9.61911 18.0411C9.27643 16.9161 9.29498 15.712 9.67215 14.5981C10.0493 13.4842 10.7661 12.5165 11.7218 11.8311C12.6775 11.1457 13.824 10.7771 15 10.7771C16.1761 10.7771 17.3225 11.1457 18.2782 11.8311C19.2339 12.5165 19.9507 13.4842 20.3279 14.5981C20.7051 15.712 20.7236 16.9161 20.3809 18.0411C20.0382 19.1661 19.3516 20.1555 18.4174 20.87C20.2426 21.6757 21.7213 23.105 22.5887 24.9017H22.5886ZM15 20.1563C15.7417 20.1563 16.4667 19.9363 17.0834 19.5243C17.7001 19.1122 18.1807 18.5266 18.4646 17.8413C18.7484 17.1561 18.8227 16.4021 18.678 15.6747C18.5333 14.9473 18.1761 14.2791 17.6517 13.7546C17.1272 13.2302 16.459 12.873 15.7316 12.7283C15.0042 12.5836 14.2502 12.6579 13.565 12.9417C12.8797 13.2256 12.2941 13.7062 11.882 14.3229C11.47 14.9396 11.25 15.6646 11.25 16.4063C11.2511 17.4005 11.6466 18.3537 12.3496 19.0567C13.0526 19.7597 14.0058 20.1552 15 20.1563ZM7.96877 13.5938C7.96877 13.3451 7.86999 13.1067 7.69418 12.9309C7.51836 12.7551 7.27991 12.6563 7.03127 12.6563C6.49769 12.6561 5.97515 12.5042 5.52468 12.2182C5.0742 11.9323 4.71437 11.5241 4.48719 11.0413C4.26001 10.5584 4.17485 10.021 4.24167 9.4916C4.30848 8.96222 4.52451 8.46277 4.86453 8.05155C5.20454 7.64034 5.65452 7.33433 6.16193 7.16926C6.66933 7.00418 7.21322 6.98685 7.73011 7.11929C8.24699 7.25173 8.71554 7.52847 9.08104 7.91721C9.44655 8.30594 9.69393 8.79063 9.79431 9.31468C9.84315 9.55656 9.98539 9.76943 10.1902 9.90712C10.3949 10.0448 10.6458 10.0962 10.8882 10.0502C11.1306 10.0041 11.3451 9.86436 11.4852 9.66119C11.6252 9.45802 11.6795 9.20782 11.6363 8.96488C11.4976 8.23529 11.1875 7.5491 10.7317 6.96283C10.2758 6.37656 9.68716 5.907 9.01424 5.59282C8.34132 5.27865 7.60338 5.12886 6.86122 5.15579C6.11906 5.18273 5.39392 5.38561 4.74555 5.74774C4.09717 6.10986 3.54411 6.62085 3.13194 7.23862C2.71976 7.85639 2.46027 8.56326 2.37484 9.30097C2.28941 10.0387 2.38048 10.7862 2.64056 11.4818C2.90063 12.1774 3.32226 12.8013 3.87072 13.302C2.59561 13.8534 1.48737 14.7296 0.656501 15.843C0.582555 15.9414 0.528723 16.0534 0.498076 16.1727C0.46743 16.2919 0.46057 16.416 0.477889 16.5379C0.512865 16.7841 0.644201 17.0063 0.843005 17.1556C1.04181 17.305 1.29179 17.3692 1.53797 17.3342C1.78414 17.2993 2.00634 17.1679 2.15568 16.9691C2.72084 16.2095 3.45644 15.5932 4.30326 15.1698C5.15009 14.7464 6.08449 14.5277 7.03127 14.5313C7.27991 14.5313 7.51836 14.4325 7.69418 14.2567C7.86999 14.0809 7.96877 13.8424 7.96877 13.5938Z" fill="#FFC121"/>
</svg>
