<svg width="24" height="24" viewBox="0 0 24 24" fill="none" xmlns="http://www.w3.org/2000/svg">
<path d="M17.3125 13.25C17.0639 13.25 16.8254 13.3488 16.6496 13.5246C16.4738 13.7004 16.375 13.9389 16.375 14.1875C16.375 14.4361 16.4738 14.6746 16.6496 14.8504C16.8254 15.0262 17.0639 15.125 17.3125 15.125H19.8125C20.0611 15.125 20.2996 15.0262 20.4754 14.8504C20.6512 14.6746 20.75 14.4361 20.75 14.1875C20.75 13.9389 20.6512 13.7004 20.4754 13.5246C20.2996 13.3488 20.0611 13.25 19.8125 13.25H17.3125ZM21.0625 4.1875C21.0625 3.27582 20.7003 2.40148 20.0557 1.75682C19.411 1.11216 18.5367 0.75 17.625 0.75H3.5625C3.17645 0.750064 2.79455 0.829603 2.44058 0.983665C2.0866 1.13773 1.76813 1.36301 1.505 1.64549C1.24187 1.92797 1.03971 2.26159 0.911109 2.62559C0.782507 2.98959 0.730219 3.37617 0.7575 3.76125C0.752716 3.79898 0.750212 3.83697 0.75 3.875V19.1875C0.75 20.2649 1.17801 21.2983 1.93988 22.0601C2.70175 22.822 3.73506 23.25 4.8125 23.25H20.4375C21.3492 23.25 22.2235 22.8878 22.8682 22.2432C23.5128 21.5985 23.875 20.7242 23.875 19.8125V7.9375C23.8752 7.13406 23.5941 6.35591 23.0803 5.73822C22.5665 5.12054 21.8526 4.70233 21.0625 4.55625V4.1875ZM2.625 3.5625C2.625 3.31386 2.72377 3.0754 2.89959 2.89959C3.0754 2.72377 3.31386 2.625 3.5625 2.625H17.625C18.4875 2.625 19.1875 3.325 19.1875 4.1875V4.5H3.5625C3.31386 4.5 3.0754 4.40123 2.89959 4.22541C2.72377 4.0496 2.625 3.81114 2.625 3.5625ZM3.5625 6.375H20.4375C21.3 6.375 22 7.075 22 7.9375V19.8125C22 20.675 21.3 21.375 20.4375 21.375H4.8125C4.23234 21.375 3.67594 21.1445 3.2657 20.7343C2.85547 20.3241 2.625 19.7677 2.625 19.1875V6.215C2.91875 6.31875 3.23375 6.375 3.5625 6.375Z" fill="#E41613"/>
</svg>
