<svg width="29" height="29" viewBox="0 0 29 29" fill="none" xmlns="http://www.w3.org/2000/svg">
<path fill-rule="evenodd" clip-rule="evenodd" d="M12.6213 2.20252C11.6493 2.20252 10.8224 2.87796 10.5903 3.78834H18.3952C18.1631 2.87796 17.3362 2.20252 16.3642 2.20252H12.6213ZM20.6003 3.78833H23.4727C26.5193 3.78833 29 6.29921 29 9.38274C29 9.38274 28.913 10.6881 28.8839 12.5059C28.881 12.6498 28.8114 12.7908 28.6968 12.8759C27.999 13.3913 27.3607 13.8171 27.3027 13.8465C24.8944 15.4617 22.096 16.5982 19.1148 17.1635C18.9204 17.2017 18.7289 17.1004 18.6302 16.9271C17.7946 15.4793 16.2336 14.5366 14.4927 14.5366C12.7635 14.5366 11.188 15.469 10.3277 16.9183C10.2276 17.0886 10.039 17.187 9.84607 17.1503C6.88949 16.5835 4.09105 15.4485 1.69735 13.8612L0.304652 12.8921C0.188594 12.8187 0.116058 12.6865 0.116058 12.5397C0.0725363 11.7908 0 9.38274 0 9.38274C0 6.29921 2.48074 3.78833 5.52726 3.78833H8.38519C8.66083 1.65923 10.4452 0 12.6213 0H16.3642C18.5403 0 20.3247 1.65923 20.6003 3.78833ZM28.5067 15.6821L28.4487 15.7115C25.5182 17.6791 21.993 18.9859 18.2936 19.5292C17.7714 19.6026 17.2491 19.2649 17.104 18.7363C16.7849 17.5322 15.7549 16.7393 14.5217 16.7393H14.5072H14.4782C13.2451 16.7393 12.2151 17.5322 11.8959 18.7363C11.7509 19.2649 11.2286 19.6026 10.7063 19.5292C7.00698 18.9859 3.48172 17.6791 0.551256 15.7115C0.536749 15.6968 0.391676 15.6087 0.275618 15.6821C0.145053 15.7555 0.145053 15.9317 0.145053 15.9317L0.246604 23.4203C0.246604 26.5038 2.71284 29 5.75936 29H23.2261C26.2726 29 28.7389 26.5038 28.7389 23.4203L28.8549 15.9317C28.8549 15.9317 28.8549 15.7555 28.7243 15.6821C28.6518 15.6381 28.5648 15.6527 28.5067 15.6821ZM15.5808 21.8345C15.5808 22.4512 15.102 22.9358 14.4927 22.9358C13.8979 22.9358 13.4047 22.4512 13.4047 21.8345V19.9403C13.4047 19.3383 13.8979 18.8391 14.4927 18.8391C15.102 18.8391 15.5808 19.3383 15.5808 19.9403V21.8345Z" fill="#605BFF"/>
</svg>
